<svg width="512" height="504" viewBox="0 0 512 504" fill="none" xmlns="http://www.w3.org/2000/svg">
<path d="M472 56H471.8C471.878 54.667 472 53.34 472 52C472 23.328 454.055 0 432 0C409.945 0 392 23.328 392 52C392 53.35 392.078 54.675 392.156 56H375.8C375.878 54.667 376 53.34 376 52C376 23.328 358.055 0 336 0C313.945 0 296 23.328 296 52C296 53.35 296.078 54.675 296.156 56H279.8C279.878 54.667 280 53.34 280 52C280 23.328 262.055 0 240 0C217.945 0 200 23.328 200 52C200 53.35 200.078 54.675 200.156 56H183.8C183.878 54.667 184 53.34 184 52C184 23.328 166.055 0 144 0C121.945 0 104 23.328 104 52C104 53.35 104.078 54.675 104.156 56H104C81.945 56 64 73.945 64 96V284.455C26.109 303.565 0 342.747 0 388C0 451.961 52.039 504 116 504C179.961 504 232 451.961 232 388C232 386.65 231.843 385.339 231.797 384H472C494.055 384 512 366.055 512 344V96C512 73.945 494.055 56 472 56ZM408 52C408 32.484 418.992 16 432 16C445.008 16 456 32.484 456 52C456 53.343 455.902 54.672 455.801 56H408.279C408.174 54.669 408 53.365 408 52ZM312 52C312 32.484 322.992 16 336 16C349.008 16 360 32.484 360 52C360 53.343 359.902 54.672 359.801 56H312.279C312.174 54.669 312 53.365 312 52ZM216 52C216 32.484 226.992 16 240 16C253.008 16 264 32.484 264 52C264 53.343 263.902 54.672 263.801 56H216.279C216.174 54.669 216 53.365 216 52ZM120 52C120 32.484 130.992 16 144 16C157.008 16 168 32.484 168 52C168 53.343 167.902 54.672 167.801 56H120.279C120.174 54.669 120 53.365 120 52ZM104 72H107.086C113.128 90.772 127.396 104 144 104C148.422 104 152 100.422 152 96C152 91.578 148.422 88 144 88C135.88 88 128.548 81.574 124.183 72H203.086C209.128 90.772 223.396 104 240 104C244.422 104 248 100.422 248 96C248 91.578 244.422 88 240 88C231.88 88 224.548 81.574 220.183 72H299.086C305.128 90.772 319.396 104 336 104C340.422 104 344 100.422 344 96C344 91.578 340.422 88 336 88C327.88 88 320.548 81.574 316.183 72H395.086C401.128 90.772 415.396 104 432 104C436.422 104 440 100.422 440 96C440 91.578 436.422 88 432 88C423.88 88 416.548 81.574 412.183 72H472C485.234 72 496 82.766 496 96V120H80V96C80 82.766 90.766 72 104 72ZM116 488C60.859 488 16 443.141 16 388C16 332.859 60.859 288 116 288C171.141 288 216 332.859 216 388C216 443.141 171.141 488 116 488ZM116 272C103.428 272 91.346 274.074 80 277.791V136H496V280H440C417.945 280 400 297.945 400 320V368H230.151C220.631 313.554 173.129 272 116 272ZM483.438 296L416 357.812V320C416 306.766 426.766 296 440 296H483.438ZM472 368H428.568L496 306.188V344C496 357.234 485.234 368 472 368Z" fill="#A2DD9D"/>
<path d="M296 224H248C243.578 224 240 227.578 240 232V272C240 276.422 243.578 280 248 280H296C300.422 280 304 276.422 304 272V232C304 227.578 300.422 224 296 224ZM288 264H256V240H288V264ZM296 152H248C243.578 152 240 155.578 240 160V200C240 204.422 243.578 208 248 208H296C300.422 208 304 204.422 304 200V160C304 155.578 300.422 152 296 152ZM288 192H256V168H288V192ZM216 152H168C163.578 152 160 155.578 160 160V200C160 204.422 163.578 208 168 208H216C220.422 208 224 204.422 224 200V160C224 155.578 220.422 152 216 152ZM208 192H176V168H208V192ZM376 224H328C323.578 224 320 227.578 320 232V272C320 276.422 323.578 280 328 280H376C380.422 280 384 276.422 384 272V232C384 227.578 380.422 224 376 224ZM368 264H336V240H368V264ZM376 152H328C323.578 152 320 155.578 320 160V200C320 204.422 323.578 208 328 208H376C380.422 208 384 204.422 384 200V160C384 155.578 380.422 152 376 152ZM368 192H336V168H368V192ZM408 208H456C460.422 208 464 204.422 464 200V160C464 155.578 460.422 152 456 152H408C403.578 152 400 155.578 400 160V200C400 204.422 403.578 208 408 208ZM416 168H448V192H416V168ZM376 296H328C323.578 296 320 299.578 320 304V344C320 348.422 323.578 352 328 352H376C380.422 352 384 348.422 384 344V304C384 299.578 380.422 296 376 296ZM368 336H336V312H368V336ZM216 224H168C163.578 224 160 227.578 160 232V272C160 276.422 163.578 280 168 280H216C220.422 280 224 276.422 224 272V232C224 227.578 220.422 224 216 224ZM208 264H176V240H208V264ZM296 296H248C243.578 296 240 299.578 240 304V344C240 348.422 243.578 352 248 352H296C300.422 352 304 348.422 304 344V304C304 299.578 300.422 296 296 296ZM288 336H256V312H288V336ZM116 304C69.68 304 32 341.68 32 388C32 434.32 69.68 472 116 472C162.32 472 200 434.32 200 388C200 341.68 162.32 304 116 304ZM124 455.486V442.382C124 437.96 120.422 434.382 116 434.382C111.578 434.382 108 437.96 108 442.382V455.486C76.899 451.818 52.182 427.101 48.514 396H61.618C66.04 396 69.618 392.422 69.618 388C69.618 383.578 66.04 380 61.618 380H48.514C52.182 348.899 76.899 324.182 108 320.514V333.618C108 338.04 111.578 341.618 116 341.618C120.422 341.618 124 338.04 124 333.618V320.514C155.101 324.182 179.818 348.899 183.486 380H170.382C165.96 380 162.382 383.578 162.382 388C162.382 392.422 165.96 396 170.382 396H183.486C179.818 427.101 155.101 451.818 124 455.486Z" fill="#A2DD9D"/>
<path d="M124 384.688V361.149C124 356.727 120.422 353.149 116 353.149C111.578 353.149 108 356.727 108 361.149V388C108 390.125 108.844 392.156 110.344 393.656L136.813 420.125C138.375 421.687 140.422 422.469 142.469 422.469C144.516 422.469 146.563 421.688 148.125 420.125C151.25 417 151.25 411.937 148.125 408.813L124 384.688Z" fill="#A3D5A3"/>
</svg>
