<svg width="100" height="100" viewBox="0 0 100 100" fill="none" xmlns="http://www.w3.org/2000/svg">
<rect width="100" height="100" rx="5" fill="#A3D5A3"/>
<rect y="65" width="100" height="7" fill="white"/>
<circle cx="20.5" cy="41.5" r="14.5" fill="white"/>
<path d="M16 65L11.6699 57.5H20.3301L16 65Z" fill="white"/>
<path d="M25 65L20.6699 57.5H29.3301L25 65Z" fill="white"/>
<rect x="19" y="61" width="3" height="4" fill="white"/>
<circle cx="20.5" cy="41.5" r="14.5" fill="white"/>
<path d="M16 65L11.6699 57.5H20.3301L16 65Z" fill="white"/>
<path d="M25 65L20.6699 57.5H29.3301L25 65Z" fill="white"/>
<rect x="19" y="61" width="3" height="4" fill="white"/>
<circle cx="49.5" cy="41.5" r="14.5" fill="white"/>
<path d="M45 65L40.6699 57.5H49.3301L45 65Z" fill="white"/>
<path d="M54 65L49.6699 57.5H58.3301L54 65Z" fill="white"/>
<rect x="48" y="61" width="3" height="4" fill="white"/>
<circle cx="78.5" cy="41.5" r="14.5" fill="white"/>
<path d="M74 65L69.6699 57.5H78.3301L74 65Z" fill="white"/>
<path d="M83 65L78.6699 57.5H87.3301L83 65Z" fill="white"/>
<rect x="77" y="61" width="3" height="4" fill="white"/>
</svg>
