<svg width="50" height="50" viewBox="0 0 50 50" fill="none" xmlns="http://www.w3.org/2000/svg">
<path d="M10.289 14.211H13.391L14.835 39.65C14.8495 39.9049 14.961 40.1445 15.1466 40.3198C15.3321 40.4952 15.5777 40.5929 15.833 40.593H34.766C35.0214 40.5929 35.2672 40.495 35.4527 40.3195C35.6383 40.1439 35.7497 39.904 35.764 39.649L37.185 14.211H40.289C40.5542 14.211 40.8086 14.1056 40.9961 13.9181C41.1836 13.7306 41.289 13.4762 41.289 13.211C41.289 12.9458 41.1836 12.6914 40.9961 12.5039C40.8086 12.3164 40.5542 12.211 40.289 12.211H36.548C36.493 12.211 36.445 12.234 36.392 12.242C36.34 12.234 36.292 12.211 36.239 12.211H30.993V9.59399C30.993 9.32878 30.8876 9.07442 30.7001 8.88689C30.5126 8.69935 30.2582 8.59399 29.993 8.59399H20.584C20.3188 8.59399 20.0644 8.69935 19.8769 8.88689C19.6893 9.07442 19.584 9.32878 19.584 9.59399V12.211H14.336C14.29 12.211 14.249 12.232 14.204 12.238C14.158 12.231 14.117 12.211 14.069 12.211H10.29C10.1587 12.2109 10.0286 12.2367 9.90727 12.2869C9.78592 12.3371 9.67564 12.4107 9.58274 12.5035C9.48983 12.5963 9.41612 12.7065 9.3658 12.8278C9.31549 12.9491 9.28956 13.0792 9.28949 13.2105C9.28942 13.3418 9.31522 13.4719 9.36542 13.5932C9.41561 13.7146 9.48922 13.8248 9.58203 13.9177C9.67484 14.0107 9.78504 14.0844 9.90634 14.1347C10.0276 14.185 10.1577 14.2109 10.289 14.211ZM21.584 10.594H28.993V12.211H21.584V10.594ZM35.182 14.211L33.82 38.594H16.778L15.394 14.211H35.182Z" fill="#FFC4C4"/>
<path d="M20.337 36.719L20.395 36.718C20.5261 36.7106 20.6544 36.6774 20.7727 36.6204C20.8909 36.5633 20.9968 36.4835 21.0842 36.3855C21.1716 36.2876 21.2388 36.1733 21.282 36.0493C21.3252 35.9254 21.3435 35.7941 21.336 35.663L20.284 17.128C20.266 16.8643 20.1455 16.6181 19.9484 16.4421C19.7512 16.2661 19.493 16.1741 19.229 16.186C19.0979 16.1934 18.9695 16.2266 18.8513 16.2836C18.733 16.3407 18.6272 16.4204 18.5398 16.5184C18.4524 16.6164 18.3852 16.7307 18.342 16.8546C18.2988 16.9786 18.2804 17.1099 18.288 17.241L19.34 35.776C19.3545 36.0307 19.4659 36.2702 19.6512 36.4455C19.8365 36.6208 20.0819 36.7186 20.337 36.719ZM30.147 36.718L30.205 36.719C30.4601 36.7186 30.7054 36.6208 30.8908 36.4455C31.0761 36.2702 31.1874 36.0307 31.202 35.776L32.254 17.241C32.269 16.9763 32.1783 16.7165 32.0019 16.5187C31.8254 16.3209 31.5776 16.2012 31.313 16.186C31.0489 16.1739 30.7905 16.2657 30.5933 16.4418C30.3961 16.6179 30.2757 16.8642 30.258 17.128L29.206 35.663C29.191 35.9277 29.2816 36.1874 29.4581 36.3853C29.6345 36.5831 29.8823 36.7028 30.147 36.718ZM25.289 36.719C25.5542 36.719 25.8085 36.6136 25.9961 36.4261C26.1836 36.2386 26.289 35.9842 26.289 35.719V17.184C26.289 16.9188 26.1836 16.6644 25.9961 16.4769C25.8085 16.2893 25.5542 16.184 25.289 16.184C25.0238 16.184 24.7694 16.2893 24.5819 16.4769C24.3943 16.6644 24.289 16.9188 24.289 17.184V35.719C24.289 35.9842 24.3943 36.2386 24.5819 36.4261C24.7694 36.6136 25.0238 36.719 25.289 36.719Z" fill="#FFC4C4"/>
</svg>
